<?xml version="1.0" encoding="UTF-8" ?>
<svg version="1.1" width="37" height="36" xmlns="http://www.w3.org/2000/svg" shape-rendering="crispEdges">
<rect x="5" y="0" width="12" height="2" fill="#5D275D" />
<rect x="20" y="0" width="12" height="2" fill="#5D275D" />
<rect x="2" y="2" width="4" height="1" fill="#5D275D" />
<rect x="6" y="2" width="12" height="6" fill="#B13E53" />
<rect x="18" y="2" width="3" height="1" fill="#5D275D" />
<rect x="21" y="2" width="12" height="6" fill="#B13E53" />
<rect x="33" y="2" width="2" height="1" fill="#5D275D" />
<rect x="2" y="3" width="1" height="3" fill="#5D275D" />
<rect x="3" y="3" width="3" height="20" fill="#B13E53" />
<rect x="18" y="3" width="3" height="20" fill="#B13E53" />
<rect x="33" y="3" width="3" height="20" fill="#B13E53" />
<rect x="0" y="5" width="2" height="16" fill="#5D275D" />
<rect x="2" y="6" width="1" height="17" fill="#B13E53" />
<rect x="36" y="6" width="1" height="17" fill="#B13E53" />
<rect x="6" y="8" width="3" height="1" fill="#B13E53" />
<rect x="15" y="8" width="3" height="1" fill="#B13E53" />
<rect x="21" y="8" width="3" height="1" fill="#B13E53" />
<rect x="30" y="8" width="3" height="1" fill="#B13E53" />
<rect x="6" y="9" width="2" height="14" fill="#B13E53" />
<rect x="15" y="9" width="2" height="12" fill="#5D275D" />
<rect x="17" y="9" width="1" height="14" fill="#B13E53" />
<rect x="21" y="9" width="2" height="14" fill="#B13E53" />
<rect x="30" y="9" width="2" height="12" fill="#5D275D" />
<rect x="32" y="9" width="1" height="14" fill="#B13E53" />
<rect x="0" y="23" width="6" height="1" fill="#29366F" />
<rect x="15" y="23" width="6" height="1" fill="#29366F" />
<rect x="30" y="23" width="6" height="1" fill="#29366F" />
<rect x="0" y="24" width="2" height="6" fill="#29366F" />
<rect x="2" y="24" width="6" height="8" fill="#3B5DC9" />
<rect x="15" y="24" width="2" height="5" fill="#29366F" />
<rect x="17" y="24" width="6" height="11" fill="#3B5DC9" />
<rect x="30" y="24" width="2" height="5" fill="#29366F" />
<rect x="32" y="24" width="5" height="8" fill="#3B5DC9" />
<rect x="14" y="27" width="1" height="3" fill="#29366F" />
<rect x="29" y="27" width="1" height="3" fill="#29366F" />
<rect x="8" y="29" width="1" height="7" fill="#3B5DC9" />
<rect x="9" y="29" width="5" height="1" fill="#29366F" />
<rect x="15" y="29" width="2" height="7" fill="#3B5DC9" />
<rect x="23" y="29" width="1" height="7" fill="#3B5DC9" />
<rect x="24" y="29" width="5" height="1" fill="#29366F" />
<rect x="30" y="29" width="2" height="7" fill="#3B5DC9" />
<rect x="9" y="30" width="6" height="6" fill="#3B5DC9" />
<rect x="24" y="30" width="6" height="6" fill="#3B5DC9" />
<rect x="2" y="32" width="1" height="1" fill="#29366F" />
<rect x="3" y="32" width="5" height="3" fill="#3B5DC9" />
<rect x="32" y="32" width="4" height="3" fill="#3B5DC9" />
<rect x="6" y="35" width="2" height="1" fill="#3B5DC9" />
<rect x="17" y="35" width="1" height="1" fill="#3B5DC9" />
<rect x="21" y="35" width="2" height="1" fill="#3B5DC9" />
<rect x="32" y="35" width="1" height="1" fill="#3B5DC9" />
</svg>